# xmcd
#
# Track frame offsets: 
#        150
#        24237
#        41648
#        59551
#        72876
#        96965
#        124686
#        152653
#        165152
#        189852
#        211614
#        230661
#        256124
#        273161
#
# Disc length: 3876 seconds
#
# Revision: 0
# Processed by: cddbd v1.4PL0 Copyright (c) Steve Scherf et al.
# Submitted via: ExactAudioCopy v0.95a3
#
DISCID=ad0f220e
DTITLE=Tom Principato - Blues Over The Years
DYEAR=1998
DGENRE=Blues
TTITLE0=Never Make Your Move Too Soon
TTITLE1=I Know What You're Thinkin'
TTITLE2=Blue Mood
TTITLE3=Try To Reach You
TTITLE4=I Only Have Love
TTITLE5=Congo Square
TTITLE6=Blue Lights
TTITLE7=My Baby Worships Me
TTITLE8=Sweet Litle Thing
TTITLE9=Slipped, Tripped, Fell In Love
TTITLE10=Deep In The Hart Of Texas
TTITLE11=It All Went Down To The Drain
TTITLE12=Call The Law
TTITLE13=Goodbye For Now
EXTD=
EXTT0=
EXTT1=
EXTT2=
EXTT3=
EXTT4=
EXTT5=
EXTT6=
EXTT7=
EXTT8=
EXTT9=
EXTT10=
EXTT11=
EXTT12=
EXTT13=
PLAYORDER=
